<svg xmlns="http://www.w3.org/2000/svg" xmlns:xlink="http://www.w3.org/1999/xlink" width="1941.257" height="1080" viewBox="0 0 1941.257 1080">
  <defs>
    <style>
      .cls-1, .cls-2 {
        stroke: #707070;
      }

      .cls-1 {
        stroke-linejoin: round;
        fill: url(#radial-gradient);
      }

      .cls-2 {
        fill: url(#linear-gradient);
      }

      .cls-3 {
        fill: #fbfb0d;
        stroke: #e2ee3b;
      }

      .cls-4 {
        stroke: none;
      }

      .cls-5 {
        fill: none;
      }
    </style>
    <radialGradient id="radial-gradient" cx="0.479" cy="0.325" r="0.5" gradientUnits="objectBoundingBox">
      <stop offset="0" stop-color="#f3f365"/>
      <stop offset="1" stop-color="#d132b6"/>
    </radialGradient>
    <linearGradient id="linear-gradient" x1="0.05" y1="0.14" x2="1" y2="1" gradientUnits="objectBoundingBox">
      <stop offset="0" stop-color="#f9a9ec"/>
      <stop offset="1" stop-color="#4d054d"/>
      <stop offset="1"/>
    </linearGradient>
  </defs>
  <g id="Group_1" data-name="Group 1" transform="translate(21.257)">
    <g id="Rectangle_1" data-name="Rectangle 1" class="cls-1">
      <rect class="cls-4" width="1920" height="1080"/>
      <rect class="cls-5" x="0.5" y="0.5" width="1919" height="1079"/>
    </g>
    <path id="Path_1" data-name="Path 1" class="cls-2" d="M-62.154,544c71.033-117.492,270.812,77.536,461.713-42.331S466.152,799.118,679.25,679.25s110.989-93.23,257.494-79.912,115.714,7.494,168.7,0c130.637-18.475,115.428-88.791,239.735-55.339s71.033,113.053,204.219,55.339,288.57-253.054,288.57-97.67v581.58H-84.351S-133.186,661.492-62.154,544Z" transform="translate(80 -4)"/>
    <g id="Ellipse_1" data-name="Ellipse 1" class="cls-3" transform="translate(897 333)">
      <circle class="cls-4" cx="26" cy="26" r="26"/>
      <circle class="cls-5" cx="26" cy="26" r="25.5"/>
    </g>
  </g>
</svg>
