<svg xmlns="http://www.w3.org/2000/svg" xmlns:xlink="http://www.w3.org/1999/xlink" width="1887.59" height="895.822" viewBox="0 0 1887.59 895.822">
  <defs>
    <radialGradient id="radial-gradient" cx="0.5" cy="0.5" r="0.5" gradientUnits="objectBoundingBox">
      <stop offset="0" stop-color="#fcfcfc"/>
      <stop offset="1" stop-color="#e51919"/>
    </radialGradient>
    <filter id="Path_4" x="402.426" y="0" width="50.855" height="72.336" filterUnits="userSpaceOnUse">
      <feOffset dy="3" input="SourceAlpha"/>
      <feGaussianBlur stdDeviation="3" result="blur"/>
      <feFlood flood-opacity="0.161"/>
      <feComposite operator="in" in2="blur"/>
      <feComposite in="SourceGraphic"/>
    </filter>
    <radialGradient id="radial-gradient-2" cx="0.5" cy="0.5" r="0.5" gradientUnits="objectBoundingBox">
      <stop offset="0" stop-color="#effefe"/>
      <stop offset="1" stop-color="#e51919"/>
    </radialGradient>
    <radialGradient id="radial-gradient-3" cx="0.5" cy="0.5" r="0.5" gradientUnits="objectBoundingBox">
      <stop offset="0" stop-color="#e51919"/>
      <stop offset="1" stop-color="#16e8e8"/>
    </radialGradient>
    <radialGradient id="radial-gradient-4" cx="0.5" cy="0.5" r="0.5" gradientUnits="objectBoundingBox">
      <stop offset="0" stop-color="#effefe"/>
      <stop offset="1" stop-color="#e5ca19"/>
    </radialGradient>
    <radialGradient id="radial-gradient-5" cx="0.5" cy="0.5" r="0.5" gradientUnits="objectBoundingBox">
      <stop offset="0" stop-color="#fff"/>
      <stop offset="1" stop-color="#08eaf2"/>
    </radialGradient>
    <radialGradient id="radial-gradient-6" cx="0.5" cy="0.5" r="0.5" gradientUnits="objectBoundingBox">
      <stop offset="0" stop-color="#fff"/>
      <stop offset="1" stop-color="#e51919"/>
    </radialGradient>
  </defs>
  <g id="Group_1" data-name="Group 1" transform="translate(9.59 -244.2)">
    <path id="Path_1" data-name="Path 1" d="M0,678.935s47.079,13.371,76.814,61.126-44.6,132.147,42.124,129.893,11.77,96.783,49.557,137.534,47.079-2.1,101.592,25.469,265.751,42.024,198.229,56.032S78.053,1196.46,0,1088.99,351.857,877.164,156.105,659.112,0,678.935,0,678.935Z" fill="#85edf1"/>
    <path id="Path_2" data-name="Path 2" d="M0,555.042s91.062-16.106,151.15,101.592,89.2,369.2,89.2,369.2S185.84,795.394,101.592,807.784,0,671.5,0,671.5Z" fill="#d6fffb"/>
    <path id="Path_3" data-name="Path 3" d="M1486.719,579.82c0-96.017-74.336-86.106-148.672-61.947s-41.5,143.1-148.672,158.583-174.689-144.336-280-96.637S716.425,756.384,768.138,867.253s250.163,133.674,348.089,156.04-43.312,37.233,11.2,5.021,9.292-186.459,61.947-218.052,74.336,149.291,148.672,91.681S1486.719,675.838,1486.719,579.82Z" fill="#cbfafc"/>
    <circle id="Ellipse_1" data-name="Ellipse 1" cx="13.5" cy="13.5" r="13.5" transform="translate(659 384)" fill="#d1f1ec"/>
    <ellipse id="Ellipse_2" data-name="Ellipse 2" cx="10" cy="13.5" rx="10" ry="13.5" transform="translate(1132 384)" fill="#d1f1ec"/>
    <circle id="Ellipse_3" data-name="Ellipse 3" cx="16" cy="16" r="16" transform="translate(1204 902)" fill="#d1f1e6"/>
    <ellipse id="Ellipse_4" data-name="Ellipse 4" cx="16.5" cy="18" rx="16.5" ry="18" transform="translate(1692 554)" fill="#d1f1ec"/>
    <ellipse id="Ellipse_5" data-name="Ellipse 5" cx="16" cy="17.5" rx="16" ry="17.5" transform="translate(1725 835)" fill="#d1f1ec"/>
    <ellipse id="Ellipse_6" data-name="Ellipse 6" cx="8.5" cy="7.5" rx="8.5" ry="7.5" transform="translate(1861 1011)" fill="#fff"/>
    <ellipse id="Ellipse_7" data-name="Ellipse 7" cx="6.5" cy="8.5" rx="6.5" ry="8.5" transform="translate(562 994)" fill="#d1f1e6"/>
    <circle id="Ellipse_8" data-name="Ellipse 8" cx="11.5" cy="11.5" r="11.5" transform="translate(569 686)" fill="#d1f1e6"/>
    <ellipse id="Ellipse_9" data-name="Ellipse 9" cx="10" cy="8.5" rx="10" ry="8.5" transform="translate(1152 627)" fill="#d1f1e6"/>
    <circle id="Ellipse_10" data-name="Ellipse 10" cx="12.5" cy="12.5" r="12.5" transform="translate(1806 290)" fill="#d1f1ec"/>
    <g transform="matrix(1, 0, 0, 1, -9.59, 244.2)" filter="url(#Path_4)">
      <path id="Path_4-2" data-name="Path 4" d="M434.691,250.2l-32.855,26.536,32.855,27.8-6.318-27.8Z" transform="translate(9.59 -244.2)" fill="url(#radial-gradient)"/>
    </g>
    <path id="Path_5" data-name="Path 5" d="M529.976,492.806l-10.791,17.986,19.185,8.393V500Z" fill="#e51919"/>
    <path id="Path_6" data-name="Path 6" d="M973.621,484.413,961.631,501.2l22.782,16.787L994,484.413V501.2l-20.384-4.8Z" fill="#6e9191"/>
    <path id="Path_7" data-name="Path 7" d="M638.651,853.554l-3.223,10.733L619.9,866.265l15.523,5.538,3.223,9.493,5.4-9.493L659,866.265l-14.948-1.978Z" fill="url(#radial-gradient-2)"/>
    <path id="Path_8" data-name="Path 8" d="M638.651,853.554l-3.223,10.733L619.9,866.265l15.523,5.538,3.223,9.493,5.4-9.493L659,866.265l-14.948-1.978Z" transform="translate(943 92)" fill="url(#radial-gradient-3)"/>
    <path id="Path_9" data-name="Path 9" d="M638.651,853.554l-3.223,16.423L619.9,873l15.523,8.473L638.651,896l5.4-14.525L659,873l-14.948-3.026Z" transform="translate(1033 -512)" fill="url(#radial-gradient-4)"/>
    <path id="Path_10" data-name="Path 10" d="M1375.3,353.249l9.446-6.726,13.336,6.726V375.3l-22.782-6.946Z" fill="url(#radial-gradient-5)"/>
    <path id="Path_11" data-name="Path 11" d="M1375.3,353.249l9.446-6.726,13.336,6.726V375.3l-22.782-6.946Z" transform="translate(326.918 671.622)" fill="url(#radial-gradient-6)"/>
    <path id="Path_12" data-name="Path 12" d="M1375.3,353.249l9.446-6.726,13.336,6.726V375.3l-22.782-6.946Z" transform="translate(-836.082 -19.358)" fill="url(#radial-gradient-6)"/>
    <path id="Path_13" data-name="Path 13" d="M1375.3,353.249l9.446-6.726,13.336,6.726V375.3l-22.782-6.946Z" transform="translate(-860.727 671.622)" fill="url(#radial-gradient-5)"/>
    <path id="Path_14" data-name="Path 14" d="M1790.991,590l29.814-34.175,36.2,23.426-36.2,44.721V579.25Z" fill="none" stroke="#707070" stroke-width="1"/>
  </g>
</svg>
